<?xml version="1.0" encoding="utf-8"?>
<svg version="1.1" id="Layer_1"
    xmlns="http://www.w3.org/2000/svg"
    xmlns:xlink="http://www.w3.org/1999/xlink" 
    x="0px" y="0px"
	 width="1000px" height="1000px" viewBox="0 0 1000 1000" 
    enable-background="new 0 0 1000 1000" xml:space="preserve" >
    <defs>
        <linearGradient id="a" x1="-.35169" x2=".33185" y1=".59356" y2=".66775" spreadMethod="reflect">
            <stop stop-color="#999" offset="0"/>
            <stop stop-color="#fff" offset=".9"/>
            <stop stop-color="#fff" offset="1"/>
        </linearGradient>
    </defs>
    <g>
        <g fill-opacity="0.164" fill-rule="evenodd" stroke-linecap="round" stroke-linejoin="round" stroke-width="1.867" id="svg_2" stroke="#000">
            <path d="m488.71354,126.02096c-185.55905,0 -336.85876,57.54304 -342.93655,129.2922l-0.18441,0l0,567.06477c0,73.82261 153.70834,133.69056 343.12593,133.69056s343.12593,-59.86796 343.12593,-133.69056l0,-567.06477l-0.18423,0c-6.07897,-71.74917 -157.37751,-129.2922 -342.93655,-129.2922l-0.01012,0z" fill="#999" id="svg_3" stroke="null"/>
            <path d="m831.82172,816.3783c-53.58398,-76.91737 -217.17303,-81.4081 -343.12593,-86.45826c-185.55905,0 -336.85876,37.40554 -342.93655,84.04609" fill="none" stroke-opacity="0.246" id="svg_4" stroke="null"/>
        </g>
        <path d="m482.79554,126.02096c-185.55905,0 -336.85876,57.54304 -342.93655,129.2922l-0.18441,0l0,567.06477c0,73.82261 153.70834,133.69056 343.12593,133.69056s343.12593,-59.86796 343.12593,-133.69056l0,-567.06477l-0.18423,0c-6.07897,-71.74917 -157.37751,-129.2922 -342.93655,-129.2922l-0.01012,0z" fill="url(#a)" fill-rule="evenodd" opacity="0.434" stroke-linecap="round" stroke-linejoin="round" stroke-width="1.867" id="svg_5" stroke="#000"/>
        <g fill="#C0C0C0" stroke-width="1.757" stroke="#000">
            <path d="m798.74007,121.78683c-241.73867,-11.75342 -356.66632,-20.75748 -629.61655,0l0,49.96113c-0.00905,0.31214 0,0.61649 0,0.9294c0,55.18219 141.03198,99.92534 314.80236,99.92534s314.80236,-44.73956 314.80236,-99.92534c0,-0.31291 0.00923,-0.61726 0,-0.9294l0,-49.96113l0.01184,0l-0.00001,0z" id="svg_7" stroke="null"/>
            <path d="m798.68089,121.8125c0,55.18219 -141.03198,99.97153 -314.80236,99.97153s-314.80236,-44.78677 -314.80236,-99.97153s141.03198,-99.97153 314.80236,-99.97153s314.80236,44.78677 314.80236,99.97153z" id="svg_8" stroke="null"/>
        </g>
    </g>
</svg>
