<?xml version="1.0" encoding="utf-8"?>
<svg version="1.1" id="Layer_1"
    xmlns="http://www.w3.org/2000/svg"
    xmlns:xlink="http://www.w3.org/1999/xlink"
    x="0px" y="0px" viewBox="0 0 300 220" 
    preserveAspectRatio="xMinYMin meet" xml:space="preserve" >
    <style type="text/css">
        .st0{fill:#F0981B;}
        .st1{fill:#FFFFFF;}
    </style>
    <g>
        <g>
            <g>
                <path class="st0" d="M15.5,187.1c5.4,12.3,18.8,28,21,29.7c-3.1,5.6-8.4,6.8-8.4,6.8S14.8,201.9,15.5,187.1z"/>
            </g>
            <path class="st0" d="M7.7,190.4c4.3,12.7,17.2,30.1,19.2,32.1c-3.6,5.3-9.9,5.4-9.9,5.4S5.8,205,7.7,190.4z"/>
            <path class="st0" d="M296.5,1c0,0-79.6,20.1-93.5,44c-33.3-5.9-89.8,3-89.8,3s-5.6-36.7-1.4-47C22.5,44,4.1,136.4,1,186.4l0,0
                                c0,0,25.5-12.2,50.1,2c1-0.7-16.6,31.8-34.2,39.4c-0.2,0.1,1.1,0.3,0.9,0.4c18-0.7,56.8-17,74.7-31.2
                                c59.2-47.1,51.1-79.9,51.1-79.9s-27.3,43.6-48.9,16.1c-17-21.6,34-70.9,119.3-55.9c50.8,8.9,82.5,31,82.5,31L249,56L296.5,1z
                                M50.1,164.9c-3.6,4.4-8.3,5-12.2,2.8c-5.3-3,4.1-24.5,17.5-25.5C55.4,142.1,55.2,158.7,50.1,164.9z M86.1,112.4
                                c0,0,3.9-23.3-21-41.6C92.6,80.3,95.2,95.4,86.1,112.4z M94.2,102.5c0,0,3.3-19.5-17.5-34.8C99.6,75.6,101.8,88.3,94.2,102.5z
                                M101.2,92.6c0,0,2.6-15.7-14.1-28C105.6,71,107.3,81.2,101.2,92.6z M107.2,83.4c0,0,2-11.9-10.7-21.2
                                C110.5,67,111.9,74.8,107.2,83.4z"
            />
        </g>
        <g>
            <path fill="#007acc" d="m229.46207,157.71017l30.76779,-47.27834c1.45459,-2.25086 1.45459,-5.01254 -0.03303,-7.25548c-1.48707,-2.24367 -4.203,-3.62079 -7.16241,-3.62079l-82.77634,0c-2.94221,0 -5.67479,1.37712 -7.15422,3.62079c-1.47888,2.24367 -1.49554,5.00462 -0.02429,7.25548l30.75879,47.27834l-30.75879,47.27834c-1.47124,2.25086 -1.45486,5.01301 0.02429,7.255c1.4797,2.24415 4.21228,3.62127 7.15422,3.62127l82.77634,0c2.95941,0 5.67534,-1.37712 7.16214,-3.62127c1.48762,-2.24199 1.48762,-5.00415 0.03303,-7.255l-30.76752,-47.27834zm-59.20398,50.88523l33.11086,-50.88523l-33.11086,-50.88499l82.77634,0l-33.11141,50.88499l33.11168,50.88523l-82.77661,0zm41.3883,-48.95366l27.12927,41.68427l-54.25034,0l27.12108,-41.68427l-0.00001,0zm0,-3.86242l-12.93328,-19.87707l25.86629,0l-12.93301,19.87707z" />
        </g>
    </g>
</svg>
