<?xml version="1.0" encoding="utf-8"?>
<svg version="1.1" id="Layer_1"
    xmlns="http://www.w3.org/2000/svg"
    xmlns:xlink="http://www.w3.org/1999/xlink" x="0px" y="0px"
	width="1000px" height="1000px" viewBox="0 0 1000 1000" 
    enable-background="new 0 0 1000 1000" xml:space="preserve">

    <g fill="#C0C0C0" stroke="none">
        <path d="M560.95,1000c-1.17,0-3.978-1.177-5.147-2.587c35.213-23.753,68.203-51.385,98.152-84.311
				c38.138-42.216,68.203-88.194,91.951-136.995h172.789c-18.133,28.928-40.594,55.268-64.109,80.313
				C774.684,936.855,671.151,986.948,560.95,1000 M934.605,524.34H1000c-2.574,69.967-20.824,137.114-51.006,198.967H769.42
				c23.631-63.264,36.617-130.41,39.307-198.967h73.468 M882.195,473.073h-73.468c-3.978-69.852-18.484-139.583-44.572-205.671h52.41
				h51.24h77.328c32.639,63.382,51.006,133.116,54.867,205.671h-65.395 M816.565,216.135h-75.924
				c-22.461-44.804-51.24-88.312-85.283-126.531c-30.182-32.926-64.342-60.676-99.555-84.311c1.17-1.414,2.574-1.414,2.574-1.414
				L556.972,0C669.747,13.052,773.28,63.145,854.586,143.581c22.344,22.458,42.115,46.096,58.961,72.555h-45.742 M703.79,267.402
				c28.896,64.678,44.572,134.408,48.549,204.257H519.069V267.402H703.79z M677.702,214.721H519.069V47.388
				c34.043,22.343,65.629,48.683,94.408,80.435C638.395,155.455,659.219,184.383,677.702,214.721 M568.905,723.307h-51.24V525.754
				h233.388c-2.691,67.143-17.08,134.29-43.285,197.553h-86.57 M621.198,776.106h61.652c-19.537,34.336-43.285,67.261-70.777,97.481
				c-28.896,31.634-60.365,59.384-94.408,81.609v-179.09h51.24 M314.459,216.135c17.197-30.342,39.307-60.68,62.939-87.02
				c27.609-30.22,56.504-55.383,89.261-76.434v163.454H314.459z M307.908,776.106h158.751v175.329
				c-32.756-21.166-61.652-47.506-89.261-77.848C350.023,844.663,327.562,810.442,307.908,776.106 M323.701,473.073h-85.049
				c3.861-69.852,19.654-139.583,48.433-204.257h179.574v204.257h-90.547 M376.111,525.754h90.547v197.553H281.82
				c-26.322-61.853-40.711-130.41-43.168-197.553h85.049 M431.095,1.292v1.295c0,1.292,1.521,1.292,2.808,1.292
				c-35.33,23.638-68.086,52.799-98.269,85.725c-35.564,38.219-64.342,80.317-86.57,125.117H86.453
				c18.367-25.045,38.02-48.683,59.078-71.141C224.146,64.559,323.701,15.758,431.095,1.292 M145.531,856.419
				c-24.918-25.045-45.976-52.681-64.226-81.724h161.207c24.918,50.212,55.1,96.189,93.121,137.11
				c30.182,32.926,62.939,61.853,98.269,85.606c-1.287,0-2.808,1.41-2.808,1.41C323.701,984.361,224.146,935.441,145.531,856.419
				M58.961,471.659H0c3.978-71.141,23.631-140.875,54.984-204.257h170.449c-26.088,66.088-40.594,134.408-44.689,204.257h-70.777
				M109.967,524.34h70.777c2.808,68.557,15.793,135.703,39.307,198.967H51.123C20.941,661.454,3.978,594.307,0,524.34h58.961"
		/>
    </g>
</svg>
