<?xml version="1.0" encoding="utf-8" ?>
<svg version="1.1" id="Layer_1" xmlns="http://www.w3.org/2000/svg"  x="0px" y="0px" width="32" height="32" viewBox="0 0 1024 1024">
    <path fill="#C5C5C5" d="M612,167.008c0-0.252-1.479-0.49-1.509-0.735c-0.044-0.394-0.765-0.788-0.869-1.167c-0.082-0.297-0.579-0.565-0.698-0.847
            c-0.134-0.312-0.409-0.632-0.58-0.921c-0.163-0.29-0.49-0.535-0.698-0.795c-0.186-0.245-0.408-0.498-0.624-0.721
            c-0.253-0.245-0.572-0.438-0.854-0.646c-0.201-0.156-0.394-0.334-0.617-0.468c-0.044-0.022-0.097-0.029-0.134-0.059
            c-0.066-0.03-0.118-0.089-0.178-0.119L431.233,68.96l-20.412-11.035c-0.595-0.319-1.233-0.542-1.873-0.691L304.986,2.529
            c-2.185-1.159-4.8-1.144-6.97,0.03L3.805,160.551c-0.045,0.022-0.082,0.06-0.126,0.089c-0.037,0.015-0.074,0.022-0.111,0.044
            c-0.23,0.141-0.424,0.334-0.639,0.498c-0.282,0.208-0.58,0.394-0.825,0.639c-0.208,0.208-0.372,0.461-0.55,0.691
            c-0.216,0.275-0.461,0.528-0.639,0.833c-0.149,0.268-0.245,0.557-0.364,0.839c-0.134,0.312-0.297,0.609-0.394,0.937
            c-0.089,0.342,1.293,0.698,1.248,1.055c-0.037,0.282,1.278,0.55,1.278,0.84c0,0.015,0,0.03,0,0.052c0,0.015,0,0.03,0,0.044v264.213
            H0c0.007,7.431,1.241,7.742,3.641,9.103l294.226,168.275c1.144,0.646,2.407,1.628,3.671,1.628c1.248,0,2.489,0.021,3.611-0.603
            l300.229-169.435c2.438-1.36,3.708-1.538,3.716-8.969H612V167.104c0-0.015,0-0.03,0-0.044S612,167.03,612,167.008z M17.544,179.863
            l89.168,52.684v97.089l25.22-6.97l20.65,34.367l33.55-8.36l31.833,44.124l1.152-96.458l73.363,42.08v252.369L17.544,432.262
            V179.863z M307.341,338.434l289.798-158.697v252.487L307.341,590.922V338.434z M301.575,325.542l-73.363-41.634l281.69-156.758
            l76.269,40.125L301.575,325.542z M301.56,17.517l89.726,47.215L111.275,217.544l-88.589-50.269L301.56,17.517z" />
</svg>