<?xml version="1.0" encoding="UTF-8" ?>
<svg viewBox="0 0 60 60" xmlns="http://www.w3.org/2000/svg">
    <path transform="matrix(.7968 0 0 .7968 .4628 11.008)" d="m35.036 17.093-9.4031 11.17m15.952-5.3972-9.2627 11.004" fill="none" stroke="#FF3535" stroke-linecap="round" stroke-width="2.1376" />
    <path transform="matrix(.7968 0 0 .7968 .4628 11.008)" d="m25.878 24.522c-1.4114-1.183-3.1126-1.4616-3.8218-0.61922l-6.3766 7.5751-0.41362 0.49136c-0.06524 0.0775-0.00513 0.21812-0.04913 0.308-2.791 4.0658-2.2058 9.6043 1.658 12.843s9.4731 2.8917 13.005-0.55346c0.08113-0.05876 0.23032-0.02396 0.29556-0.10146l0.41362-0.49136 6.3766-7.5751c0.70912-0.8424 0.14031-2.4663-1.2711-3.6493l-9.8162-8.2272z" fill="#ff6363" fill-rule="evenodd" stroke="#FF3535" stroke-linecap="round" stroke-linejoin="round" stroke-width="1.922" />
    <path transform="matrix(.7968 0 0 .7968 52.169 -8.6606)" d="m-25 56.324 9.4031-11.17m-15.952 5.3972 9.2627-11.004" fill="none" stroke="#FF5555" stroke-linecap="round" stroke-width="2.1376" />
    <path transform="matrix(.7968 0 0 .7968 52.169 -8.6606)" d="m-15.842 48.895c1.4114 1.183 3.1126 1.4616 3.8218 0.61922l6.3766-7.5751 0.41362-0.49136c0.06524-0.0775 0.00513-0.21812 0.04913-0.308 2.791-4.0658 2.2058-9.6043-1.658-12.843s-9.4731-2.8917-13.005 0.55346c-0.08113 0.05876-0.23032 0.02396-0.29556 0.10146l-0.41362 0.49136-6.3766 7.5751c-0.70912 0.8424-0.14031 2.4663 1.2711 3.6493l9.8162 8.2272z" fill="#ffa3a3" fill-rule="evenodd" stroke="#FF5555" stroke-linecap="round" stroke-linejoin="round" stroke-width="1.922" />
</svg>