<?xml version="1.0" encoding="UTF-8" ?>
<svg viewBox="0 0 60 60" xmlns="http://www.w3.org/2000/svg">
    <path transform="translate(1.2724 -2.2903)" d="m24.62592,30.54755c-1.12463-.94258-2.48015-1.16462-3.04518-.49339l-5.08087,6.03583-.32957.39151c-.05198.06175-.00408.1738-.03914.24542-2.2239,3.23962-1.75755,7.65265 1.32108,10.23293s7.54811,2.30409 10.36205-.441c.06464-.04682.18352-.01909.2355-.08085l.32957-.39151 5.08087-6.03583c.56503-.67123.1118-1.96515-1.01283-2.90773l-7.82148-6.55539z" fill="#6cff6c" fill-rule="evenodd" stroke="#25FF25" stroke-linecap="round" stroke-linejoin="round" stroke-width="2" />
    <path transform="translate(-1.0179 2.5448)" d="m36.00335,30.29884c1.12463.94258 2.48015,1.16462 3.04518.49339l5.08087-6.03583 .32957-.39151c.05198-.06175.00408-.1738.03914-.24542 2.2239-3.23962 1.75755-7.65265-1.32108-10.23293s-7.54811-2.3041-10.36205.441c-.06464.04682-.18352.01909-.2355.08085l-.32957.39151-5.08087,6.03583c-.56503.67122-.1118,1.96515 1.01283,2.90773l7.82148,6.55539z" fill="#a3ffa3" fill-rule="evenodd" stroke="#65FF65" stroke-linecap="round" stroke-linejoin="round" stroke-width="2" />
</svg>