<?xml version="1.0" encoding="utf-8" ?>
<svg width="16" height="16" viewBox="0 0 16 16" fill="none" xmlns="http://www.w3.org/2000/svg" xmlns:svg="http://www.w3.org/2000/svg">
        <path clip-rule="424242" fill="#C5C5C5" d="M15,0.452348412 L15,4.44398147 C15,4.69382313 14.7971667,4.89649655 14.5475,4.89649655 C14.2978333,4.89649655 14.095,4.69382313 14.095,4.44398147 L14.095,1.5438848 L9.18,6.45904863 C9.09316667,6.54771826 8.97716667,6.59121971 8.86133333,6.59121971 C8.7455,6.59121971 8.62966667,6.54771826 8.541,6.45904863 C8.3635,6.28154272 8.3635,5.99553318 8.541,5.82002733 L13.454,0.905030168 L10.5558333,0.905030168 C10.306,0.905030168 10.1033333,0.702190073 10.1033333,0.452515084 C10.1033333,0.202673422 10.3061667,0 10.5558333,0 L14.5473333,0 C14.5926667,0 14.6396667,0.00716690556 14.6831667,0.0198339945 C14.6976667,0.0253341778 14.7103333,0.0306676889 14.723,0.0361678723 C14.7755,0.0578352612 14.8243333,0.0905030168 14.866,0.132171072 C14.8768333,0.143004767 14.8858333,0.153838461 14.8968333,0.164672156 C14.915,0.188172939 14.933,0.215340511 14.9475,0.242508084 C14.953,0.255175173 14.9601667,0.267842261 14.9656667,0.282342745 C14.982,0.320344011 14.991,0.360178673 14.9946667,0.401846728 C14.9965,0.407346912 14.9965,0.410847028 14.9965,0.416347212 C14.9981667,0.428847628 15,0.439681323 15,0.452348412 Z M14.5468333,15 L0.4525,15 C0.2025,15 1.77635684e-15,14.7973266 1.77635684e-15,14.5474849 L1.77635684e-15,0.452681756 C1.77635684e-15,0.202673422 0.202666667,0.000166672223 0.4525,0.000166672223 L6.13659515,0.000166672223 C6.38659515,0.000166672223 6.58909515,0.202840095 6.58909515,0.452681756 C6.58909515,0.702523417 6.38642848,0.90519684 6.13659515,0.90519684 L0.905166667,0.90519684 L0.905166667,14.0948032 L14.0943333,14.0948032 L14.0943333,8.84894311 C14.0943333,8.59893478 14.297,8.39642803 14.5468333,8.39642803 C14.7968333,8.39642803 14.9993333,8.59910145 14.9993333,8.84894311 L14.9993333,14.5474849 C14.9995,14.7974932 14.7968333,15 14.5468333,15 Z" ></path>
</svg>